:SAMPLES-PER-SECOND 30
:FULLY-SPECIFIED
:DEGREES
15
root  -78.571 34.6504 -2.05747 -150.034 80.6774 -157.895
RightUpLeg  -33.3965 1.49813 9.20629
RightLeg  57.1441 6.75075 -6.36397
RightFoot  -25.4761 -0.437498 -4.16752
RightToes  8.73114e-010 -1.59028e-015 9.93923e-017
Spine  15.4953 -1.00876 -6.57091
Spine1  0.994625 -2.986 6.38224
HEad  -37.3527 -0.183841 8.45293
LeftShoulder1  9.93923e-017 0 1.22299e-017
LeftArm  11.1693 24.8253 -81.9783
LeftForeArm  -38.6286 -21.7039 9.5985
LeftHand  0.397652 4.49333 9.68613
RightShoulder  1.98785e-016 -4.96962e-017 1.55301e-017
RightArm  29.2568 -36.8593 83.8126
RightForeArm  -42.002 18.6817 -11.7282
RightHand  1.38512 -12.7173 -3.72378
LeftUpLeg  -40.5592 -15.4788 4.95651
LeftLeg  58.3953 -9.02295 5.14261
LeftFoot  -22.7985 -0.234896 -2.04539
LeftToes  -2.6557e-010 -5.74853e-011 7.92038e-011
16
root  -76.5843 34.8939 -1.99496 -157.964 78.9466 -166.532
RightUpLeg  -29.5581 1.63358 9.34867
RightLeg  55.4666 4.97551 -8.64137
RightFoot  -27.302 -0.138017 -1.27776
RightToes  8.73114e-010 -1.59028e-015 9.93923e-017
Spine  15.6766 -1.77386 -7.71946
Spine1  -0.694329 -3.85817 6.42976
HEad  -40.4502 0.0979627 11.7557
LeftShoulder1  9.93923e-017 0 1.22299e-017
LeftArm  11.0892 16.3818 -81.2578
LeftForeArm  -39.1399 -31.2568 19.1334
LeftHand  0.474531 4.92423 10.7939
RightShoulder  1.98785e-016 -4.96962e-017 1.55301e-017
RightArm  26.2213 -34.0855 83.1598
RightForeArm  -40.2265 24.9892 -22.8787
RightHand  1.50028 -13.3019 -4.36791
LeftUpLeg  -37.106 -14.9645 4.06016
LeftLeg  57.6801 -10.0738 3.06888
LeftFoot  -24.8373 -0.305162 -2.13885
LeftToes  -2.6557e-010 -5.74853e-011 7.92038e-011
17
root  -74.1231 36.4735 -2.06998 -161.389 78.7178 -169.362
RightUpLeg  -20.5575 1.55419 9.06541
RightLeg  46.3412 3.5783 -7.54276
RightFoot  -19.9433 0.143452 2.64548
RightToes  8.73114e-010 -1.59028e-015 9.93923e-017
Spine  12.9961 -2.52409 -7.72281
Spine1  -0.689693 -4.39729 5.97675
HEad  -38.9173 -0.985523 11.8493
LeftShoulder1  9.93923e-017 0 1.22299e-017
LeftArm  8.26682 14.2664 -79.1902
LeftForeArm  -34.9488 -40.9819 24.8592
LeftHand  0.574503 5.32662 10.532
RightShoulder  1.98785e-016 -4.96962e-017 1.55301e-017
RightArm  21.0667 -33.7976 80.9977
RightForeArm  -33.9189 31.958 -29.0285
RightHand  1.51978 -13.8214 -3.64461
LeftUpLeg  -27.8893 -13.2088 3.44256
LeftLeg  49.4535 -11.117 0.501754
LeftFoot  -18.2576 -0.25576 -4.68756
LeftToes  -2.6557e-010 -5.74853e-011 7.92038e-011
18
root  -71.1657 38.822 -2.33279 -160.713 80.9988 -167.566
RightUpLeg  -10.4143 2.21737 8.09293
RightLeg  34.0509 3.37462 -4.77663
RightFoot  -0.517464 -0.554566 4.83555
RightToes  8.73114e-010 -1.59028e-015 9.93923e-017
Spine  6.24541 -2.58686 -5.46961
Spine1  1.37994 -3.52896 3.44713
HEad  -31.1559 -2.46363 8.57102
LeftShoulder1  9.93923e-017 0 1.22299e-017
LeftArm  8.91303 18.0111 -77.4392
LeftForeArm  -33.6 -45.4955 27.7235
LeftHand  0.616447 5.44456 9.77819
RightShoulder  1.98785e-016 -4.96962e-017 1.55301e-017
RightArm  22.4949 -36.0344 78.5528
RightForeArm  -31.0102 34.8828 -31.5366
RightHand  1.34376 -13.4852 -1.53991
LeftUpLeg  -16.3969 -11.2932 2.73834
LeftLeg  36.6044 -10.1387 0.339977
LeftFoot  -1.15943 0.88061 -7.62836
LeftToes  -2.6557e-010 -5.74853e-011 7.92038e-011
19
root  -68.1129 41.1585 -2.63648 -152.301 84.1433 -158.648
RightUpLeg  -4.66862 4.54094 7.39356
RightLeg  26.2998 5.53328 -2.2004
RightFoot  21.8239 -1.53562 4.95159
RightToes  8.73114e-010 -1.59028e-015 9.93923e-017
Spine  -2.33289 -1.87605 -2.56615
Spine1  4.64866 -2.00359 0.764454
HEad  -21.0187 -2.00072 5.8161
LeftShoulder1  9.93923e-017 0 1.22299e-017
LeftArm  9.18049 25.8874 -76.2379
LeftForeArm  -33.4108 -46.6724 28.5536
LeftHand  0.712164 5.6882 6.62133
RightShoulder  1.98785e-016 -4.96962e-017 1.55301e-017
RightArm  26.1227 -39.5715 75.4442
RightForeArm  -29.9353 35.8587 -32.4575
RightHand  1.09145 -12.2812 0.863067
LeftUpLeg  -8.62413 -11.3829 1.74977
LeftLeg  27.1629 -7.35235 1.26843
LeftFoot  18.2824 2.01909 -7.02688
LeftToes  -2.6557e-010 -5.74853e-011 7.92038e-011
20
root  -65.4198 43.1786 -2.81586 -143.36 85.8381 -149.571
RightUpLeg  -4.7545 6.75444 7.49429
RightLeg  28.4639 8.80914 -0.427393
RightFoot  32.2611 -2.41263 5.7555
RightToes  8.73114e-010 -1.59028e-015 9.93923e-017
Spine  -7.83901 -1.69667 -2.46605
Spine1  7.47038 -1.91796 1.25683
HEad  -15.1678 -0.18739 5.55109
LeftShoulder1  9.93923e-017 0 1.22299e-017
LeftArm  8.01021 34.5622 -75.1363
LeftForeArm  -33.921 -47.8174 29.3514
LeftHand  0.867392 6.32957 2.31053
RightShoulder  1.98785e-016 -4.96962e-017 1.55301e-017
RightArm  27.685 -41.7947 71.9238
RightForeArm  -30.5017 37.1635 -33.5915
RightHand  0.996267 -11.5305 1.47205
LeftUpLeg  -7.25328 -12.3144 0.704286
LeftLeg  27.7384 -6.74682 1.75675
LeftFoot  27.1051 1.83921 -4.78078
LeftToes  -2.6557e-010 -5.74853e-011 7.92038e-011
21
root  -63.2053 44.8016 -2.87748 -150.096 85.9825 -155.32
RightUpLeg  -7.81018 5.40056 7.40431
RightLeg  37.8502 10.9786 0.94051
RightFoot  31.3269 -2.93246 7.19619
RightToes  8.73114e-010 -1.59028e-015 9.93923e-017
Spine  -7.28367 -2.3042 -4.91609
Spine1  8.86108 -3.25081 4.01362
HEad  -15.1519 1.17869 5.59518
LeftShoulder1  9.93923e-017 0 1.22299e-017
LeftArm  7.94514 40.5632 -74.3021
LeftForeArm  -33.7626 -47.01 28.7997
LeftHand  0.936739 6.67906 0.661782
RightShoulder  1.98785e-016 -4.96962e-017 1.55301e-017
RightArm  26.092 -41.4554 69.8454
RightForeArm  -31.4849 37.499 -33.8412
RightHand  1.08399 -11.7631 0.0405424
LeftUpLeg  -9.3957 -12.0059 -0.263601
LeftLeg  35.5192 -7.61854 2.25708
LeftFoot  24.7131 1.31472 -3.5449
LeftToes  -2.6557e-010 -5.74853e-011 7.92038e-011
22
root  -61.2465 46.1197 -2.91096 -164.701 86.0551 -168.183
RightUpLeg  -10.9616 1.80236 6.35963
RightLeg  46.2905 11.4222 1.43114
RightFoot  28.4681 -3.43841 9.06402
RightToes  8.73114e-010 -1.59028e-015 9.93923e-017
Spine  -3.45347 -2.42561 -6.71718
Spine1  9.46354 -3.99867 5.28276
HEad  -16.1216 1.1225 4.64632
LeftShoulder1  9.93923e-017 0 1.22299e-017
LeftArm  11.0968 43.4889 -73.7219
LeftForeArm  -33.0305 -41.7876 25.3828
LeftHand  0.899226 6.43745 0.749091
RightShoulder  1.98785e-016 -4.96962e-017 1.55301e-017
RightArm  24.1159 -39.9487 69.8373
RightForeArm  -31.9014 35.5247 -32.0169
RightHand  1.19278 -12.2517 -1.17161
LeftUpLeg  -11.3056 -10.2753 -1.23862
LeftLeg  41.3913 -7.33179 3.54804
LeftFoot  19.3915 1.48267 -4.86422
LeftToes  -2.6557e-010 -5.74853e-011 7.92038e-011
23
root  -59.264 47.2481 -2.96905 -178.179 86.9857 179.362
RightUpLeg  -14.2022 -0.926384 5.13339
RightLeg  49.792 11.8075 2.03782
RightFoot  26.7414 -3.68617 10.1714
RightToes  8.73114e-010 -1.59028e-015 9.93923e-017
Spine  -0.431236 -1.94643 -6.88304
Spine1  9.61329 -3.58723 4.53634
HEad  -14.213 0.317064 3.74393
LeftShoulder1  9.93923e-017 0 1.22299e-017
LeftArm  17.0578 45.7511 -72.8981
LeftForeArm  -33.9974 -34.6606 21.572
LeftHand  0.841103 5.98402 -0.0506524
RightShoulder  1.98785e-016 -4.96962e-017 1.55301e-017
RightArm  25.5841 -38.7979 70.5694
RightForeArm  -32.8392 32.4197 -29.3674
RightHand  1.17189 -12.2641 -0.756348
LeftUpLeg  -12.6471 -7.42011 -1.81956
LeftLeg  40.9141 -6.46422 4.25497
LeftFoot  15.6976 1.817 -6.82444
LeftToes  -2.6557e-010 -5.74853e-011 7.92038e-011
24
root  -57.2056 48.0594 -3.05045 168.79 88.1712 166.109
RightUpLeg  -17.9856 -1.82881 4.62463
RightLeg  49.604 12.821 3.29941
RightFoot  23.2607 -3.06538 9.32483
RightToes  8.73114e-010 -1.59028e-015 9.93923e-017
Spine  1.24892 -1.51411 -6.45034
Spine1  9.38941 -2.94981 3.69802
HEad  -11.4284 -0.0316699 3.52093
LeftShoulder1  9.93923e-017 0 1.22299e-017
LeftArm  23.4623 48.8704 -72.0393
LeftForeArm  -36.6567 -29.0837 19.0583
LeftHand  0.778556 5.54063 -0.0626051
RightShoulder  1.98785e-016 -4.96962e-017 1.55301e-017
RightArm  30.1481 -38.0447 71.2224
RightForeArm  -34.4444 29.8243 -27.2871
RightHand  1.09765 -11.8396 -0.0910658
LeftUpLeg  -14.4967 -5.40224 -1.9969
LeftLeg  36.7053 -6.12215 3.71651
LeftFoot  12.1205 1.6495 -7.10439
LeftToes  -2.6557e-010 -5.74853e-011 7.92038e-011
25
root  -55.1805 48.4775 -3.1412 150.916 88.7342 147.983
RightUpLeg  -21.0399 -1.49756 4.38344
RightLeg  46.364 12.908 3.11598
RightFoot  18.8897 -2.126 7.39079
RightToes  8.73114e-010 -1.59028e-015 9.93923e-017
Spine  3.10785 -1.26356 -5.93341
Spine1  9.76268 -2.52239 3.07638
HEad  -10.7774 0.254034 3.38804
LeftShoulder1  9.93923e-017 0 1.22299e-017
LeftArm  27.7861 51.916 -71.9455
LeftForeArm  -40.415 -25.5748 16.9245
LeftHand  0.736079 5.4128 1.48797
RightShoulder  1.98785e-016 -4.96962e-017 1.55301e-017
RightArm  34.313 -37.2296 72.1395
RightForeArm  -36.1419 27.6668 -25.6339
RightHand  1.08897 -11.5778 -0.451499
LeftUpLeg  -16.7132 -6.68192 -2.05843
LeftLeg  32.2669 -5.23636 3.49901
LeftFoot  7.31282 1.27653 -6.84665
LeftToes  -2.6557e-010 -5.74853e-011 7.92038e-011
